<svg width="20" height="20" viewBox="0 0 20 20" fill="none" xmlns="http://www.w3.org/2000/svg">
<g id="arrow-up-svgrepo-com (1) 1">
<g id="SVGRepo_iconCarrier">
<path id="Vector" d="M10.4516 13.2749L17.0891 6.30862C17.1999 6.19239 17.2617 6.03796 17.2617 5.87737C17.2617 5.71679 17.1999 5.56236 17.0891 5.44613L17.0816 5.43862C17.0279 5.38208 16.9632 5.33706 16.8916 5.30629C16.8199 5.27552 16.7427 5.25966 16.6647 5.25966C16.5867 5.25966 16.5096 5.27552 16.4379 5.30629C16.3662 5.33706 16.3016 5.38208 16.2478 5.43862L9.99785 11.9986L3.75035 5.43862C3.69663 5.38208 3.63198 5.33706 3.56031 5.30629C3.48864 5.27552 3.41147 5.25966 3.33348 5.25966C3.25548 5.25966 3.17831 5.27552 3.10664 5.30629C3.03497 5.33706 2.97032 5.38208 2.9166 5.43862L2.9091 5.44613C2.79829 5.56236 2.73648 5.71679 2.73648 5.87737C2.73648 6.03796 2.79829 6.19239 2.9091 6.30862L9.5466 13.2749C9.60497 13.3361 9.67518 13.3849 9.75296 13.4182C9.83074 13.4516 9.91448 13.4687 9.9991 13.4687C10.0837 13.4688 10.1675 13.4516 10.2452 13.4182C10.323 13.3849 10.3932 13.3361 10.4516 13.2749Z" fill="black"/>
</g>
</g>
</svg>
