<svg width="38" height="38" viewBox="0 0 38 38" fill="none" xmlns="http://www.w3.org/2000/svg">
<g clip-path="url(#clip0_141_1034)">
<path d="M32 0H6C2.68629 0 0 2.68629 0 6V32C0 35.3137 2.68629 38 6 38H32C35.3137 38 38 35.3137 38 32V6C38 2.68629 35.3137 0 32 0Z" fill="white"/>
<path d="M32 0.5H6C2.96243 0.5 0.5 2.96243 0.5 6V32C0.5 35.0376 2.96243 37.5 6 37.5H32C35.0376 37.5 37.5 35.0376 37.5 32V6C37.5 2.96243 35.0376 0.5 32 0.5Z" stroke="#ACACAC"/>
<g clip-path="url(#clip1_141_1034)">
<path d="M22.9844 10.2947C22.8914 10.2007 22.7807 10.126 22.6586 10.0751C22.5366 10.0241 22.4057 9.99791 22.2734 9.99791C22.1412 9.99791 22.0102 10.0241 21.8882 10.0751C21.7661 10.126 21.6554 10.2007 21.5624 10.2947L14.8834 16.9737C14.3182 17.5393 14.0007 18.3061 14.0007 19.1057C14.0007 19.9053 14.3182 20.6722 14.8834 21.2377L21.4834 27.8477C21.672 28.0364 21.9278 28.1425 22.1946 28.1426C22.4613 28.1427 22.7172 28.0368 22.9059 27.8482C23.0946 27.6596 23.2007 27.4038 23.2008 27.1371C23.2009 26.8703 23.095 26.6144 22.9064 26.4257L16.3064 19.8187C16.2124 19.7257 16.1377 19.615 16.0868 19.493C16.0358 19.3709 16.0096 19.24 16.0096 19.1077C16.0096 18.9755 16.0358 18.8445 16.0868 18.7225C16.1377 18.6004 16.2124 18.4897 16.3064 18.3967L22.9844 11.7187C23.0787 11.6257 23.1536 11.5148 23.2048 11.3926C23.2559 11.2704 23.2822 11.1392 23.2822 11.0067C23.2822 10.8742 23.2559 10.7431 23.2048 10.6208C23.1536 10.4986 23.0787 10.3878 22.9844 10.2947Z" fill="#0F0F0F"/>
</g>
</g>
<defs>
<clipPath id="clip0_141_1034">
<rect width="38" height="38" fill="white"/>
</clipPath>
<clipPath id="clip1_141_1034">
<rect width="9.278" height="18.142" fill="white" transform="matrix(-1 0 0 -1 23.2783 28.1426)"/>
</clipPath>
</defs>
</svg>
