<svg width="40" height="40" viewBox="0 0 40 40" fill="none" xmlns="http://www.w3.org/2000/svg">
<mask id="mask0_179_103" style="mask-type:luminance" maskUnits="userSpaceOnUse" x="3" y="6" width="33" height="32">
<path fill-rule="evenodd" clip-rule="evenodd" d="M3.19922 6.40039H35.9552V37.602H3.19922V6.40039Z" fill="white"/>
</mask>
<g mask="url(#mask0_179_103)">
<path fill-rule="evenodd" clip-rule="evenodd" d="M8.60181 22.3816C10.6581 28.7793 18.7821 33.9524 20.9411 35.2328C23.1074 33.9392 31.2901 28.7089 33.2804 22.3875C34.5872 18.3013 33.3743 13.1253 28.5547 11.5721C26.2197 10.8226 23.4961 11.2787 21.6158 12.7337C21.2227 13.0358 20.6771 13.0417 20.2811 12.7425C18.2893 11.245 15.6874 10.8065 13.3158 11.5721C8.50354 13.1238 7.29498 18.2998 8.60181 22.3816ZM20.9437 37.6022C20.7618 37.6022 20.5814 37.5582 20.4171 37.4687C19.9581 37.2179 9.14413 31.2573 6.50848 23.0526C6.50702 23.0526 6.50702 23.0511 6.50702 23.0511C4.85258 17.8854 6.69475 11.3938 12.6422 9.47685C15.4348 8.57337 18.4782 8.97084 20.9393 10.5241C23.3241 9.01631 26.4922 8.59977 29.229 9.47685C35.1824 11.3968 37.0304 17.8869 35.3774 23.0511C32.8268 31.1619 21.9337 37.212 21.4717 37.4658C21.3074 37.5567 21.1256 37.6022 20.9437 37.6022Z" fill="black"/>
</g>
</svg>
