<svg width="22" height="20" viewBox="0 0 22 20" fill="none" xmlns="http://www.w3.org/2000/svg">
<mask id="mask0_227_2" style="mask-type:luminance" maskUnits="userSpaceOnUse" x="0" y="0" width="22" height="21">
<path fill-rule="evenodd" clip-rule="evenodd" d="M0.75 0.5H21.2225V20.001H0.75V0.5Z" fill="white"/>
</mask>
<g mask="url(#mask0_227_2)">
<path fill-rule="evenodd" clip-rule="evenodd" d="M2.57396 9.62312C3.97596 13.9851 9.51496 17.5121 10.987 18.3851C12.464 17.5031 18.043 13.9371 19.4 9.62712C20.291 6.84112 19.464 3.31212 16.178 2.25312C14.586 1.74212 12.729 2.05312 11.447 3.04512C11.179 3.25112 10.807 3.25512 10.537 3.05112C9.17896 2.03012 7.40496 1.73112 5.78796 2.25312C2.50696 3.31112 1.68296 6.84012 2.57396 9.62312ZM10.988 20.0011C10.864 20.0011 10.741 19.9711 10.629 19.9101C10.316 19.7391 2.94296 15.6751 1.14596 10.0811C1.14496 10.0811 1.14496 10.0801 1.14496 10.0801C0.0169566 6.55812 1.27296 2.13212 5.32796 0.825118C7.23196 0.209118 9.30696 0.480118 10.985 1.53912C12.611 0.511118 14.771 0.227118 16.637 0.825118C20.696 2.13412 21.956 6.55912 20.829 10.0801C19.09 15.6101 11.663 19.7351 11.348 19.9081C11.236 19.9701 11.112 20.0011 10.988 20.0011Z" fill="black"/>
</g>
<path fill-rule="evenodd" clip-rule="evenodd" d="M16.9037 8.12429C16.5167 8.12429 16.1887 7.82729 16.1567 7.43529C16.0907 6.61329 15.5407 5.91929 14.7577 5.66629C14.3627 5.53829 14.1467 5.11529 14.2737 4.72229C14.4027 4.32829 14.8217 4.11429 15.2177 4.23829C16.5807 4.67929 17.5357 5.88629 17.6527 7.31329C17.6857 7.72629 17.3787 8.08829 16.9657 8.12129C16.9447 8.12329 16.9247 8.12429 16.9037 8.12429Z" fill="black"/>
</svg>
