<svg width="17" height="16" viewBox="0 0 17 16" fill="none" xmlns="http://www.w3.org/2000/svg">
<mask id="mask0_64_533" style="mask-type:alpha" maskUnits="userSpaceOnUse" x="0" y="0" width="17" height="16">
<rect x="0.921875" width="16" height="16" fill="#D9D9D9"/>
</mask>
<g mask="url(#mask0_64_533)">
<path d="M14.2219 14C12.833 14 11.4608 13.6972 10.1052 13.0917C8.74965 12.4861 7.51632 11.6278 6.40521 10.5167C5.2941 9.40556 4.43576 8.17222 3.83021 6.81667C3.22465 5.46111 2.92188 4.08889 2.92188 2.7C2.92188 2.5 2.98854 2.33333 3.12188 2.2C3.25521 2.06667 3.42188 2 3.62188 2H6.32188C6.47743 2 6.61632 2.05278 6.73854 2.15833C6.86076 2.26389 6.93299 2.38889 6.95521 2.53333L7.38854 4.86667C7.41076 5.04444 7.40521 5.19444 7.37188 5.31667C7.33854 5.43889 7.27743 5.54444 7.18854 5.63333L5.57188 7.26667C5.7941 7.67778 6.05799 8.075 6.36354 8.45833C6.6691 8.84167 7.00521 9.21111 7.37188 9.56667C7.71632 9.91111 8.07743 10.2306 8.45521 10.525C8.83299 10.8194 9.23299 11.0889 9.65521 11.3333L11.2219 9.76667C11.3219 9.66667 11.4524 9.59167 11.6135 9.54167C11.7747 9.49167 11.933 9.47778 12.0885 9.5L14.3885 9.96667C14.5441 10.0111 14.6719 10.0917 14.7719 10.2083C14.8719 10.325 14.9219 10.4556 14.9219 10.6V13.3C14.9219 13.5 14.8552 13.6667 14.7219 13.8C14.5885 13.9333 14.4219 14 14.2219 14Z" fill="white"/>
</g>
</svg>
