<svg width="17" height="16" viewBox="0 0 17 16" fill="none" xmlns="http://www.w3.org/2000/svg">
<path d="M8.92413 0H8.91998C4.4897 0 0.886719 3.58912 0.886719 8C0.886719 9.74883 1.4535 11.3729 2.4166 12.6894L1.41469 15.6605L4.50356 14.678C5.7743 15.5164 7.29032 16 8.92413 16C13.3544 16 16.9574 12.4095 16.9574 8C16.9574 3.59051 13.3544 0 8.92413 0ZM13.5997 11.2981C13.4057 11.8427 12.6366 12.2945 12.0227 12.4275C11.6028 12.5162 11.054 12.5883 9.20822 11.8261C6.84688 10.8519 5.32531 8.46423 5.20752 8.30902C5.09389 8.15382 4.25273 7.04382 4.25273 5.89641C4.25273 4.749 4.83752 4.18916 5.07449 3.94942C5.2685 3.75264 5.58861 3.66257 5.89625 3.66257C5.99602 3.66257 6.08471 3.66672 6.16508 3.67088C6.40066 3.68058 6.51984 3.69444 6.67504 4.06582C6.86905 4.53144 7.34021 5.67885 7.39703 5.79664C7.45384 5.91443 7.51204 6.07379 7.43167 6.229C7.35684 6.38975 7.29032 6.46042 7.17115 6.59622C7.05197 6.73203 6.93972 6.83596 6.82193 6.98147C6.71385 7.10896 6.59051 7.24476 6.7277 7.47895C6.86489 7.70899 7.33605 8.47532 8.0317 9.09198C8.92829 9.88741 9.65582 10.141 9.91634 10.2491C10.1103 10.3295 10.3418 10.3101 10.4831 10.1604C10.6633 9.96778 10.885 9.64767 11.1109 9.3331C11.2716 9.10722 11.4739 9.07951 11.6873 9.15988C11.9049 9.23471 13.0523 9.8001 13.2879 9.91651C13.5235 10.0343 13.6801 10.0897 13.7369 10.1895C13.7923 10.2879 13.7923 10.7535 13.5997 11.2995V11.2981Z" fill="white"/>
</svg>
