<svg width="26" height="33" viewBox="0 0 26 33" fill="none" xmlns="http://www.w3.org/2000/svg">
<path d="M6.09009 9.24V6.20757C6.32432 2.21189 8.74474 0 13.039 0C17.2943 0 19.7538 2.21189 19.9099 6.27892V9.24H22.7598C24.5556 9.24 26 10.56 26 12.2011V30.0389C26 31.68 24.5556 33 22.7598 33H3.24024C1.44444 33 0 31.68 0 30.0389V12.2011C0 10.56 1.44444 9.24 3.24024 9.24H6.09009ZM8.51051 9.24H17.4895V6.31459C17.3333 3.46054 16.006 2.21189 13.039 2.21189C10.0721 2.21189 8.70571 3.46054 8.51051 6.27892V9.24ZM6.09009 11.4519H3.24024C2.77177 11.4519 2.42042 11.773 2.42042 12.2011V30.0389C2.42042 30.467 2.77177 30.7881 3.24024 30.7881H22.7598C23.2282 30.7881 23.5796 30.467 23.5796 30.0389V12.2011C23.5796 11.773 23.2282 11.4519 22.7598 11.4519H19.9099V15.0195C19.9099 15.6259 19.3634 16.1254 18.6997 16.1254C18.036 16.1254 17.4895 15.6259 17.4895 15.0195V11.4519H8.51051V15.0195C8.51051 15.6259 7.96396 16.1254 7.3003 16.1254C6.63664 16.1254 6.09009 15.6259 6.09009 15.0195V11.4519Z" fill="black"/>
</svg>
